<svg width="107" height="107" viewBox="0 0 107 107" fill="none" xmlns="http://www.w3.org/2000/svg">
<g clip-path="url(#clip0)">
<circle cx="54.2179" cy="53.276" r="40.9219" stroke="url(#paint0_linear)" stroke-width="4.30757"/>
<mask id="mask0" mask-type="alpha" maskUnits="userSpaceOnUse" x="28" y="35" width="55" height="44">
<path d="M42.31 76.1006C40.9929 76.9276 39.8135 77.4484 38.7721 77.6628C37.7612 77.9079 36.6585 78.0304 35.4639 78.0304C34.2692 78.0304 33.2431 77.6781 32.3854 76.9736C31.5583 76.2691 31.1448 75.3348 31.1448 74.1708C31.1448 73.0068 31.5277 71.95 32.2935 71.0004C33.0899 70.0508 34.0395 69.3004 35.1422 68.749C37.3783 67.585 39.4153 66.8192 41.2532 66.4516L42.4479 66.2219C42.4785 66.0994 42.6623 65.4867 42.9992 64.384C43.3362 63.2813 43.5812 62.4236 43.7344 61.8109C39.8442 64.1389 36.6432 65.3029 34.1314 65.3029C32.6304 65.3029 31.3898 64.8282 30.4096 63.8786C29.4294 62.8984 28.9393 61.5199 28.9393 59.7433C28.9393 57.936 29.5213 54.7044 30.6853 50.0484C31.8493 45.3618 32.4313 42.2373 32.4313 40.6751C32.4313 39.6643 31.9718 38.5156 31.0529 37.2291L30.5934 36.5858L30.7313 35.8966C32.5692 35.3759 35.4026 35.1155 39.2315 35.1155C39.6604 36.0344 39.8748 37.275 39.8748 38.8372C39.8748 40.3995 39.2928 43.7077 38.1288 48.7619C36.9648 53.7855 36.3828 56.6955 36.3828 57.4919C36.3828 59.1154 36.9342 59.9271 38.0369 59.9271C40.1199 59.9271 42.3406 59.3298 44.6993 58.1352C46.5678 50.4466 47.839 43.1869 48.5129 36.3561C50.0751 35.5597 52.2193 35.1614 54.9456 35.1614H55.8186C55.8186 36.7849 55.5429 39.0363 54.9915 41.9157C54.287 45.5609 53.1996 51.0746 51.7292 58.4568C51.086 61.765 50.2436 64.6597 49.2021 67.1408C48.1607 69.5914 47.0885 71.4905 45.9858 72.8383C44.8831 74.1861 43.6578 75.2735 42.31 76.1006ZM35.4639 74.9519C36.536 74.9519 37.654 74.3546 38.818 73.16C39.982 71.996 40.9316 70.6022 41.6668 68.9787C40.2271 69.1319 38.6036 69.6833 36.7963 70.6328C35.0197 71.6131 34.1314 72.6086 34.1314 73.6194C34.1314 73.987 34.2539 74.2933 34.499 74.5384C34.7746 74.8141 35.0963 74.9519 35.4639 74.9519ZM79.694 35.1155C80.4598 35.1155 81.4093 35.7281 82.5427 36.9534C81.3481 39.1282 79.2345 41.9157 76.202 45.3158C75.1911 46.4492 73.6902 48.1033 71.6991 50.2781C72.4036 52.2692 73.292 54.6585 74.3641 57.4459C75.9569 61.6425 77.2281 63.7407 78.1777 63.7407C78.484 63.7407 79.2804 63.3885 80.567 62.6839L81.2102 62.3623L82.1751 64.384C81.2256 65.3336 79.9237 66.2219 78.2696 67.0489C76.6461 67.876 75.2371 68.2895 74.0424 68.2895C72.8784 68.2895 71.9442 67.9832 71.2396 67.3706C70.5351 66.7273 69.8459 65.5327 69.172 63.7867C68.4981 62.0407 67.6098 59.4983 66.5071 56.1594C63.0763 60.1722 60.197 63.9858 57.869 67.6003C57.5626 68.1211 57.0878 68.3814 56.4446 68.3814C55.8013 68.3814 54.9896 67.7382 54.0094 66.4516C55.4184 64.0317 57.6545 61.0911 60.7177 57.6297C61.7898 56.4351 63.3214 54.7504 65.3124 52.5755C63.0763 45.9591 61.4835 41.977 60.5339 40.6292C59.615 39.2814 58.6807 38.1327 57.7311 37.1831L57.9149 36.4939C57.8536 36.4633 58.2365 36.3408 59.0636 36.1263C61.3916 35.575 63.7655 35.238 66.1854 35.1155C66.9512 35.7894 67.5792 36.9687 68.0693 38.6534C69.3864 43.095 70.1982 45.8059 70.5045 46.7861C74.4253 42.3139 77.1362 38.6841 78.6372 35.8966C78.9129 35.3759 79.2651 35.1155 79.694 35.1155Z" fill="black"/>
</mask>
<g mask="url(#mask0)">
<rect x="22" y="26" width="63" height="53" fill="url(#paint1_linear)"/>
</g>
</g>
<defs>
<linearGradient id="paint0_linear" x1="54.2179" y1="10.2003" x2="54.2179" y2="96.3517" gradientUnits="userSpaceOnUse">
<stop stop-color="#FEECC8"/>
<stop offset="1" stop-color="#C8DAFE"/>
</linearGradient>
<linearGradient id="paint1_linear" x1="53.5" y1="26" x2="53.5" y2="79" gradientUnits="userSpaceOnUse">
<stop stop-color="#FEECC8"/>
<stop offset="1" stop-color="#C8DAFE"/>
</linearGradient>
<clipPath id="clip0">
<rect width="107" height="107" fill="white"/>
</clipPath>
</defs>
</svg>
